<svg xmlns="http://www.w3.org/2000/svg" width="16" height="12.874" viewBox="0 0 16 12.874">
  <g id="Icon_ionic-ios-mail" transform="translate(-3.375 -6.976)">
    <path id="Path_13" d="M19.244,10.335l-4.138,3.737a.061.061,0,0,0,0,.1L18,16.9a.408.408,0,0,1,0,.627.548.548,0,0,1-.708,0L14.41,14.805a.086.086,0,0,0-.112,0l-.7.634a3.3,3.3,0,0,1-2.208.825,3.368,3.368,0,0,1-2.254-.849l-.677-.61a.086.086,0,0,0-.112,0L5.46,17.53a.548.548,0,0,1-.708,0,.408.408,0,0,1,0-.627l2.9-2.735a.067.067,0,0,0,0-.1L3.506,10.335a.077.077,0,0,0-.131.048v7.478a1.171,1.171,0,0,0,1.231,1.091H18.144a1.171,1.171,0,0,0,1.231-1.091V10.383A.079.079,0,0,0,19.244,10.335Z" fill="#4caf50"/>
    <path id="Path_14" d="M11.377,20.749c.54,0,1.048-.408,1.427-1.153L18.531,8.367a.907.907,0,0,0-.723-.492H4.949a.9.9,0,0,0-.723.492L9.953,19.6C10.329,20.334,10.836,20.749,11.377,20.749Z" transform="translate(0 -0.899)" fill="#4caf50"/>
  </g>
</svg>
